<svg width="1254" height="1254" viewBox="0 0 1254 1254" fill="none" xmlns="http://www.w3.org/2000/svg">
<path d="M429.809 916.18C412.272 905.801 396.154 893.192 381.859 878.67C336.019 832.37 310.289 775.84 298.799 712.43C284.109 631.43 293.289 552.81 325.719 477.21C349.579 421.55 385.469 375.09 435.719 340.54C485.969 305.99 541.449 287.95 602.659 288C690.739 288.093 778.822 288.093 866.909 288C936.769 288 983.519 361.76 953.449 424.89C938.449 456.33 914.209 476.44 879.319 482.49C875.369 483.099 871.375 483.373 867.379 483.31C784.119 483.31 700.829 481.77 617.619 483.72C531.999 485.72 462.919 521.81 415.989 594.72C384.439 643.72 373.369 698.58 377.319 756.5C381.109 812.64 397.329 864.82 427.659 912.37C428.439 913.63 429.109 914.92 429.809 916.18Z" fill="#0B0B0B"/>
<path d="M429.809 916.18C412.272 905.801 396.154 893.192 381.859 878.67C336.019 832.37 310.289 775.84 298.799 712.43C284.109 631.43 293.289 552.81 325.719 477.21C349.579 421.55 385.469 375.09 435.719 340.54C485.969 305.99 541.449 287.95 602.659 288C690.739 288.093 778.822 288.093 866.909 288C936.769 288 983.519 361.76 953.449 424.89C938.449 456.33 914.209 476.44 879.319 482.49C875.369 483.099 871.375 483.373 867.379 483.31C784.119 483.31 700.829 481.77 617.619 483.72C531.999 485.72 462.919 521.81 415.989 594.72C384.439 643.72 373.369 698.58 377.319 756.5C381.109 812.64 397.329 864.82 427.659 912.37C428.439 913.63 429.109 914.92 429.809 916.18Z" fill="#0B0B0B"/>
<path d="M604.629 965.37C594.249 962.07 583.709 959.18 573.499 955.37C531.499 939.9 496.019 915.49 470.849 877.84C451.039 848.22 440.189 815.28 436.759 779.84C432.995 742.565 438.812 704.947 453.659 670.55C484.929 597.37 559.109 548.16 638.619 548.18C684.409 548.18 730.189 548.33 775.979 548.12C827.339 547.9 871.679 586.76 877.749 637.68C884.089 690.85 847.489 741.68 795.199 752.01C789.804 753.047 784.322 753.563 778.829 753.55C734.829 753.67 690.899 754.44 646.969 753.37C597.519 752.16 560.379 789.49 551.699 831.59C542.329 877.09 557.699 915.42 588.489 948.51C593.659 954.06 599.559 958.94 605.109 964.13L604.629 965.37Z" fill="#0B0B0B"/>
</svg>
